<?xml version="1.0" encoding="UTF-8"?>
<svg width="195px" height="195px" viewBox="0 0 195 195" version="1.1" xmlns="http://www.w3.org/2000/svg" xmlns:xlink="http://www.w3.org/1999/xlink">
    <!-- Generator: Sketch 42 (36781) - http://www.bohemiancoding.com/sketch -->
    <title>Oval</title>
    <desc>Created with Sketch.</desc>
    <defs></defs>
    <g id="Page-1" stroke="none" stroke-width="1" fill="none" fill-rule="evenodd">
        <circle id="Oval-Copy" fill="#FFFFFF" cx="97.5" cy="97.5" r="97.5"></circle>
        <path d="M167.439033,29.5677234 C149.722095,11.3307275 124.934264,0 97.5,0 C43.6522369,0 0,43.6522369 0,97.5 C0,151.347763 43.6522369,195 97.5,195 C151.347763,195 195,151.347763 195,97.5 C195,81.556766 191.173304,66.5073049 184.38829,53.2199959 L128.625,111.960938 C115.799415,125.437567 104.8783,135.85413 95.8613281,143.210938 C86.844356,150.567745 80.4804873,154.246094 76.7695312,154.246094 C72.8632617,154.246094 68.0130498,152.406919 62.21875,148.728516 C56.4244502,145.050112 52.680998,141.257832 50.9882812,137.351562 C49.5559824,134.096338 48.2050845,127.195365 46.9355469,116.648438 C45.6660093,106.10151 45.03125,94.6758428 45.03125,82.3710938 C45.03125,75.6653311 47.8307012,69.4642212 53.4296875,63.7675781 C59.0286738,58.0709351 65.2135078,55.2226562 71.984375,55.2226562 C78.4297197,55.2226562 82.2708271,61.1145244 83.5078125,72.8984375 C83.6380215,74.2656318 83.7356768,75.2747363 83.8007812,75.9257812 C84.8424531,84.9753057 86.0468682,91.2903467 87.4140625,94.8710938 C88.7812568,98.4518408 90.636707,100.242188 92.9804688,100.242188 C93.9570361,100.242188 95.7799346,99.1842554 98.4492188,97.0683594 C101.118503,94.9524634 104.308575,92.0716328 108.019531,88.4257812 L167.439033,29.5677234 Z" id="Combined-Shape" fill="#4990E2"></path>
    </g>
</svg>